<?xml version="1.0" encoding="UTF-8"?>
<svg id="Capa_1" data-name="Capa 1" xmlns="http://www.w3.org/2000/svg" viewBox="0 0 337.26 109.42">
  <defs>
    <style>
      .cls-1 {
        fill: #010101;
      }
    </style>
  </defs>
  <path class="cls-1" d="M39.18,106.2h27.59l31.7-83.45v83.45h32.01v-30.89c7.23,18.85,24.21,34.11,48.41,34.11,10.55,0,19.84-2.32,26.69-6.47l.17,3.25h27.99v-60.16h-53.66v25.73h22.03c-2.69,6.43-10.32,11.08-19.29,11.08-18.77,0-23.77-17.29-23.77-27.51,0-18.46,8.72-29.05,23.93-29.05,10.2,0,17.79,5.8,18.48,11.22l.56,4.46h32.01l-.47-5.53c0-.08-.03-.16-.03-.25l19.51,31.25v38.77h32.01v-38.54L323.76,3.08h-37.16l-17.37,32.43L250.38,3.08h-37.54l4.12,6.59c-8.89-6.07-20.69-9.67-33.99-9.67-25.48,0-44.63,12.5-52.49,32.67V3.08h-58.15l-18.98,54.79L34.23,3.08H0l39.18,103.12Z"/>
  <rect class="cls-1" x="300.57" y="69.34" width="36.69" height="36.69"/>
</svg>