<?xml version="1.0" encoding="UTF-8"?>
<svg id="Capa_1" data-name="Capa 1" xmlns="http://www.w3.org/2000/svg" viewBox="0 0 2916.4 946.21">
  <path d="M338.79,918.38h238.56L851.51,196.72v721.66h276.76v-267.09c62.53,163,209.31,294.92,418.58,294.92,91.26,0,171.55-20.06,230.77-55.93l1.43,28.09h242.01V398.18h-464v222.49h190.52c-23.25,55.59-89.23,95.79-166.8,95.79-162.28,0-205.57-149.54-205.57-237.9,0-159.64,75.42-251.22,206.94-251.22,88.24,0,153.86,50.16,159.79,97l4.88,38.54h276.77l-4.03-47.78c-.06-.72-.23-1.41-.3-2.12l168.69,270.19v335.22h276.77v-333.24L2799.67,26.63h-321.33l-150.22,280.43-163.02-280.43h-324.66l35.61,57.02C1799.22,31.14,1697.11,0,1582.14,0c-220.35,0-385.94,108.13-453.87,282.47V26.63h-502.8l-164.16,473.8L296.03,26.63H0l338.79,891.75Z"/>
  <rect x="2599.12" y="601.54" width="317.28" height="317.28"/>
</svg>